<svg xmlns="http://www.w3.org/2000/svg" viewBox="0 0 512 512">
  <defs>
    <linearGradient id="bg" x1="0%" y1="0%" x2="100%" y2="100%">
      <stop offset="0%" style="stop-color:#2E7D9B;stop-opacity:1" />
      <stop offset="100%" style="stop-color:#1B5E7B;stop-opacity:1" />
    </linearGradient>
  </defs>
  <!-- Bakgrunn -->
  <rect width="512" height="512" rx="96" fill="url(#bg)"/>
  <!-- Hjerte -->
  <path d="M256 420 C256 420 100 310 100 210 C100 160 140 120 190 120 C220 120 245 135 256 160 C267 135 292 120 322 120 C372 120 412 160 412 210 C412 310 256 420 256 420Z" 
        fill="#FFFFFF" opacity="0.95"/>
  <!-- Puls-linje -->
  <path d="M150 250 L210 250 L230 200 L260 300 L280 220 L300 270 L320 250 L370 250" 
        stroke="#2E7D9B" stroke-width="10" stroke-linecap="round" stroke-linejoin="round" fill="none"/>
</svg>
